<svg width="1680" height="837" viewBox="0 0 1680 837" fill="none" xmlns="http://www.w3.org/2000/svg">
<g clip-path="url(#clip0_11_251)">
<path d="M1680 0H0V837H1680V0Z" fill="white"/>
<mask id="mask0_11_251" style="mask-type:alpha" maskUnits="userSpaceOnUse" x="0" y="0" width="240" height="240">
<path d="M240 0H0V240H240V0Z" fill="#C4C4C4"/>
</mask>
<g mask="url(#mask0_11_251)">
<path d="M120 120H-120V360H120V120Z" fill="#DECC28"/>
<path d="M120 -120H-120V120H120V-120Z" fill="#28C0DE"/>
<path d="M360 -120H120V120H360V-120Z" fill="#DD1166"/>
<path d="M360 120H120V360H360V120Z" fill="#363636"/>
</g>
<mask id="mask1_11_251" style="mask-type:alpha" maskUnits="userSpaceOnUse" x="0" y="480" width="240" height="240">
<path d="M240 480H0V720H240V480Z" fill="#C4C4C4"/>
</mask>
<g mask="url(#mask1_11_251)">
<path d="M60 546H-180V786H60V546Z" fill="#DECC28"/>
<path d="M60 306H-180V546H60V306Z" fill="#28C0DE"/>
<path d="M300 306H60V546H300V306Z" fill="#DD1166"/>
<path d="M300 546H60V786H300V546Z" fill="#363636"/>
</g>
<mask id="mask2_11_251" style="mask-type:alpha" maskUnits="userSpaceOnUse" x="360" y="480" width="240" height="240">
<path d="M600 480H360V720H600V480Z" fill="#C4C4C4"/>
</mask>
<g mask="url(#mask2_11_251)">
<path d="M480 697H240V937H480V697Z" fill="#DECC28"/>
<path d="M480 457H240V697H480V457Z" fill="#28C0DE"/>
<path d="M720 457H480V697H720V457Z" fill="#DD1166"/>
<path d="M720 697H480V937H720V697Z" fill="#363636"/>
</g>
<mask id="mask3_11_251" style="mask-type:alpha" maskUnits="userSpaceOnUse" x="720" y="480" width="240" height="240">
<path d="M960 480H720V720H960V480Z" fill="#C4C4C4"/>
</mask>
<g mask="url(#mask3_11_251)">
<path d="M840 629L632.154 749L752.154 956.846L960 836.846L840 629Z" fill="#DECC28"/>
<path d="M720 421.154L512.154 541.154L632.154 749L840 629L720 421.154Z" fill="#28C0DE"/>
<path d="M927.846 301.154L720 421.154L840 629L1047.85 509L927.846 301.154Z" fill="#DD1166"/>
<path d="M1047.85 509L840 629L960 836.846L1167.85 716.846L1047.85 509Z" fill="#363636"/>
</g>
<mask id="mask4_11_251" style="mask-type:alpha" maskUnits="userSpaceOnUse" x="1080" y="480" width="240" height="240">
<path d="M1320 480H1080V720H1320V480Z" fill="#C4C4C4"/>
</mask>
<g mask="url(#mask4_11_251)">
<path d="M1200 629H960V869H1200V629Z" fill="#DECC28"/>
<path d="M1200 389H960V629H1200V389Z" fill="#28C0DE"/>
<path d="M1390 429H1150V669H1390V429Z" fill="#DD1166"/>
<path d="M1440 629H1200V869H1440V629Z" fill="#363636"/>
</g>
<mask id="mask5_11_251" style="mask-type:alpha" maskUnits="userSpaceOnUse" x="1440" y="480" width="240" height="240">
<path d="M1680 480H1440V720H1680V480Z" fill="#C4C4C4"/>
</mask>
<g mask="url(#mask5_11_251)">
<path d="M1560 629H1320V869H1560V629Z" fill="#DECC28"/>
<path d="M1602.03 421.676L1365.68 380L1324 616.354L1560.36 658.029L1602.03 421.676Z" fill="#28C0DE"/>
<path d="M1800 391H1560V631H1800V391Z" fill="#DD1166"/>
<path d="M1749.34 558.985L1512.99 600.661L1554.67 837.015L1791.02 795.339L1749.34 558.985Z" fill="#363636"/>
</g>
<path d="M1565.18 769L1560 774.18L1554.82 769L1552 771.82L1557.18 777L1552 782.18L1554.82 785L1560 779.82L1565.18 785L1568 782.18L1562.82 777L1568 771.82L1565.18 769ZM1560 757C1548.94 757 1540 765.94 1540 777C1540 788.06 1548.94 797 1560 797C1571.06 797 1580 788.06 1580 777C1580 765.94 1571.06 757 1560 757ZM1560 793C1551.18 793 1544 785.82 1544 777C1544 768.18 1551.18 761 1560 761C1568.82 761 1576 768.18 1576 777C1576 785.82 1568.82 793 1560 793Z" fill="black"/>
<path d="M1205.18 769L1200 774.18L1194.82 769L1192 771.82L1197.18 777L1192 782.18L1194.82 785L1200 779.82L1205.18 785L1208 782.18L1202.82 777L1208 771.82L1205.18 769ZM1200 757C1188.94 757 1180 765.94 1180 777C1180 788.06 1188.94 797 1200 797C1211.06 797 1220 788.06 1220 777C1220 765.94 1211.06 757 1200 757ZM1200 793C1191.18 793 1184 785.82 1184 777C1184 768.18 1191.18 761 1200 761C1208.82 761 1216 768.18 1216 777C1216 785.82 1208.82 793 1200 793Z" fill="black"/>
<path d="M845.18 769L840 774.18L834.82 769L832 771.82L837.18 777L832 782.18L834.82 785L840 779.82L845.18 785L848 782.18L842.82 777L848 771.82L845.18 769ZM840 757C828.94 757 820 765.94 820 777C820 788.06 828.94 797 840 797C851.06 797 860 788.06 860 777C860 765.94 851.06 757 840 757ZM840 793C831.18 793 824 785.82 824 777C824 768.18 831.18 761 840 761C848.82 761 856 768.18 856 777C856 785.82 848.82 793 840 793Z" fill="black"/>
<path d="M127.65 769.633L116.667 780.617L110.683 774.65L108.333 777L116.667 785.333L130 772L127.65 769.633ZM120 760.333C110.8 760.333 103.333 767.8 103.333 777C103.333 786.2 110.8 793.667 120 793.667C129.2 793.667 136.667 786.2 136.667 777C136.667 767.8 129.2 760.333 120 760.333ZM120 790.333C112.633 790.333 106.667 784.367 106.667 777C106.667 769.633 112.633 763.667 120 763.667C127.367 763.667 133.333 769.633 133.333 777C133.333 784.367 127.367 790.333 120 790.333Z" fill="black"/>
<path d="M487.65 769.633L476.667 780.617L470.683 774.65L468.333 777L476.667 785.333L490 772L487.65 769.633ZM480 760.333C470.8 760.333 463.333 767.8 463.333 777C463.333 786.2 470.8 793.667 480 793.667C489.2 793.667 496.667 786.2 496.667 777C496.667 767.8 489.2 760.333 480 760.333ZM480 790.333C472.633 790.333 466.667 784.367 466.667 777C466.667 769.633 472.633 763.667 480 763.667C487.367 763.667 493.333 769.633 493.333 777C493.333 784.367 487.367 790.333 480 790.333Z" fill="black"/>
</g>
<defs>
<clipPath id="clip0_11_251">
<rect width="1680" height="837" fill="white"/>
</clipPath>
</defs>
</svg>
